<?xml version="1.0" standalone="no"?>
<!DOCTYPE svg PUBLIC "-//W3C//DTD SVG 20010904//EN"
 "http://www.w3.org/TR/2001/REC-SVG-20010904/DTD/svg10.dtd">
<svg version="1.0" xmlns="http://www.w3.org/2000/svg"
 width="500.000000pt" height="500.000000pt" viewBox="0 0 500.000000 500.000000"
 preserveAspectRatio="xMidYMid meet">
<metadata>
Created by potrace 1.11, written by Peter Selinger 2001-2013
</metadata>
<g transform="translate(0.000000,500.000000) scale(0.100000,-0.100000)"
fill="#000000" stroke="none">
<path d="M1000 3958 c-29 -95 -67 -213 -82 -263 -16 -49 -76 -241 -134 -425
-58 -184 -132 -418 -164 -520 -105 -332 -167 -529 -285 -904 -156 -497 -153
-489 -186 -591 -16 -49 -29 -93 -29 -98 0 -4 77 -6 172 -5 l172 3 28 90 c31
101 33 106 82 265 113 368 206 673 206 676 0 2 213 4 473 4 l472 0 43 -137
c24 -76 45 -145 46 -153 2 -8 55 -180 117 -382 l113 -368 173 0 c95 0 173 3
173 8 0 7 -6 25 -59 195 -72 226 -308 977 -336 1067 -13 41 -39 125 -59 185
-19 61 -48 153 -64 205 -31 97 -147 468 -254 805 -33 105 -83 263 -111 353
l-51 162 -201 0 -201 0 -54 -172z m405 -723 c58 -192 110 -361 115 -375 5 -14
25 -79 45 -145 20 -66 43 -140 51 -164 8 -25 14 -48 14 -53 0 -4 -169 -8 -375
-8 -206 0 -375 2 -375 5 0 2 6 24 14 47 8 24 26 84 41 133 15 50 30 101 35
115 5 14 25 81 45 150 20 69 41 139 46 155 25 76 188 612 190 625 1 10 50
-143 154 -485z"/>
<path d="M3929 3018 c-1 -1162 -1 -1152 -14 -1233 -21 -123 -60 -208 -126
-273 -82 -81 -195 -112 -384 -107 -151 4 -276 28 -401 78 -46 19 -87 31 -89
26 -8 -11 -95 -259 -95 -267 0 -8 133 -61 215 -86 132 -40 218 -50 410 -50
220 1 290 14 435 85 148 73 271 217 329 387 54 159 54 155 55 1387 1 627 0
1146 -2 1153 -3 9 -46 12 -168 12 l-164 0 -1 -1112z"/>
</g>
</svg>
